<?xml version="1.0" encoding="UTF-8"?>
<svg version="1.1" xmlns="http://www.w3.org/2000/svg" width="500" height="500">
<path d="M0 0 C1.08333333 0.8125 2.16666667 1.625 3.25 2.4375 C3.97960937 2.98277344 4.70921875 3.52804688 5.4609375 4.08984375 C7.26523019 5.44722702 9.06128531 6.81559049 10.8515625 8.19140625 C26.79020203 20.56514291 26.79020203 20.56514291 46.05078125 24.49609375 C51.57730477 23.56646662 56.19093055 20.75824786 61 18 C62.32843504 17.32362542 63.65976908 16.65268929 65 16 C65.83946426 21.45651766 63.90214694 24.49279736 60.82421875 28.76171875 C53.33501405 37.95082859 42.82585354 43.66332582 31 45 C11.62019094 46.34816063 -5.64630548 40.25339969 -22.75 31.875 C-23.75148071 31.38833862 -23.75148071 31.38833862 -24.77319336 30.8918457 C-28.44844804 29.02940791 -31.27399381 27.09773431 -34 24 C-32.05780718 23.02890359 -30.11544495 22.05818268 -28.171875 21.08984375 C-26.31531568 20.15822495 -24.4690365 19.20616707 -22.625 18.25 C-20 17 -20 17 -18 17 C-17.67 16.34 -17.34 15.68 -17 15 C-15.00669158 13.65668346 -13.00615134 12.32405988 -11 11 C-10.4225 10.4225 -9.845 9.845 -9.25 9.25 C-8.8375 8.8375 -8.425 8.425 -8 8 C-7.34 8 -6.68 8 -6 8 C-5.7525 7.4225 -5.505 6.845 -5.25 6.25 C-3.83316683 3.6997003 -2.12372463 1.98214299 0 0 Z " fill="#26297E" transform="translate(133,247)"/>
<path d="M0 0 C0.99 0.66 1.98 1.32 3 2 C3.60824222 6.22586892 3.51483214 10.48398743 3.50097656 14.74853516 C3.50000639 16.86109634 3.54155668 18.96999728 3.5859375 21.08203125 C3.59114642 22.42707577 3.59383266 23.7721329 3.59375 25.1171875 C3.60083984 26.34034668 3.60792969 27.56350586 3.61523438 28.82373047 C3 32 3 32 0.71484375 34.28051758 C-2.96102108 36.60867549 -6.66552786 38.75618981 -10.5 40.8125 C-11.24636719 41.23208984 -11.99273437 41.65167969 -12.76171875 42.08398438 C-13.49003906 42.47521484 -14.21835938 42.86644531 -14.96875 43.26953125 C-15.62294922 43.62635986 -16.27714844 43.98318848 -16.95117188 44.35083008 C-19 45 -19 45 -24 44 C-24 33.77 -24 23.54 -24 13 C-16.08 8.71 -8.16 4.42 0 0 Z " fill="#5441CD" transform="translate(198,223)"/>
<path d="M0 0 C21.52969121 10.52969121 21.52969121 10.52969121 25 14 C25.08783542 16.21855264 25.10694609 18.43988496 25.09765625 20.66015625 C25.0962413 21.32462265 25.09482635 21.98908905 25.09336853 22.6736908 C25.08775518 24.80333899 25.07520054 26.93288339 25.0625 29.0625 C25.05748671 30.50325369 25.05292351 31.94400903 25.04882812 33.38476562 C25.03778145 36.92321102 25.02050792 40.46159539 25 44 C21.62770798 43.45158888 19.11182761 42.71148289 16.22265625 40.890625 C15.54396484 40.46523438 14.86527344 40.03984375 14.16601562 39.6015625 C13.12477539 38.93253906 13.12477539 38.93253906 12.0625 38.25 C11.37220703 37.81945312 10.68191406 37.38890625 9.97070312 36.9453125 C8.60375699 36.0797959 7.25055524 35.19215758 5.91259766 34.2824707 C4.05159808 32.98962513 4.05159808 32.98962513 2.17724609 32.02026367 C0.52734375 30.99609375 0.52734375 30.99609375 -2 28 C-2.78276472 23.5839891 -2.65504473 19.28214887 -2.5 14.8125 C-2.4896875 13.61173828 -2.479375 12.41097656 -2.46875 11.17382812 C-2.30893216 2.30893216 -2.30893216 2.30893216 0 0 Z " fill="#9865EC" transform="translate(145,223)"/>
<path d="M0 0 C4.37815184 2.25658046 8.69857812 4.59983356 13 7 C13 8.32 13 9.64 13 11 C9.64271002 12.90810006 6.26199435 14.77021738 2.875 16.625 C1.92367187 17.16640625 0.97234375 17.7078125 -0.0078125 18.265625 C-7.10116892 22.10785973 -7.10116892 22.10785973 -11.125 21.625 C-12.07375 21.08875 -13.0225 20.5525 -14 20 C-15.43460852 19.2780746 -16.86953141 18.55677374 -18.3046875 17.8359375 C-19.83065215 17.0203357 -21.35405276 16.19992054 -22.875 15.375 C-23.65875 14.95476562 -24.4425 14.53453125 -25.25 14.1015625 C-27.16892057 13.0718978 -29.08477603 12.03652433 -31 11 C-31 9.68 -31 8.36 -31 7 C-28.06482399 5.34999614 -25.12647526 3.70572568 -22.1875 2.0625 C-21.35412109 1.59392578 -20.52074219 1.12535156 -19.66210938 0.64257812 C-18.45844727 -0.0293457 -18.45844727 -0.0293457 -17.23046875 -0.71484375 C-16.49207764 -1.12855225 -15.75368652 -1.54226074 -14.99291992 -1.96850586 C-9.11037007 -5.01319202 -5.66102057 -2.63785775 0 0 Z " fill="#9766EA" transform="translate(181,211)"/>
<path d="M0 0 C1.67542976 0.28604898 3.34385343 0.61781233 5 1 C6.12975833 4.31395777 7.17884773 7.59702663 8 11 C8.27714844 10.28972656 8.55429687 9.57945312 8.83984375 8.84765625 C9.20207031 7.92855469 9.56429688 7.00945312 9.9375 6.0625 C10.47697266 4.68771484 10.47697266 4.68771484 11.02734375 3.28515625 C12 1 12 1 13 0 C14.66617115 -0.04063832 16.33388095 -0.042721 18 0 C18.48198463 1.24891614 18.96045677 2.49918808 19.4375 3.75 C19.70433594 4.44609375 19.97117187 5.1421875 20.24609375 5.859375 C20.96146693 7.89059003 21.51365652 9.9035291 22 12 C22.27714844 11.21753906 22.55429687 10.43507812 22.83984375 9.62890625 C23.20207031 8.61699219 23.56429688 7.60507813 23.9375 6.5625 C24.29714844 5.55316406 24.65679687 4.54382813 25.02734375 3.50390625 C26 1 26 1 27 0 C28.66617115 -0.04063832 30.33388095 -0.042721 32 0 C31.6841833 6.00051731 30.44570437 11.26613931 28.5625 16.9375 C28.34505127 17.60015869 28.12760254 18.26281738 27.90356445 18.94555664 C26.90867853 21.84646601 26.19625308 23.80374692 24 26 C22.35 26 20.7 26 19 26 C17.68 21.71 16.36 17.42 15 13 C14.360625 14.959375 13.72125 16.91875 13.0625 18.9375 C11.125 24.875 11.125 24.875 10 26 C8.33382885 26.04063832 6.66611905 26.042721 5 26 C1.85514166 18.21273173 -1.55956049 9.51439336 -1 1 C-0.67 0.67 -0.34 0.34 0 0 Z " fill="#5A1EDE" transform="translate(290,242)"/>
<path d="M0 0 C1.15113281 -0.02578125 2.30226562 -0.0515625 3.48828125 -0.078125 C6.9332268 0.27520275 8.31113125 0.7695567 10.6875 3.25 C11.0625 6.3125 11.0625 6.3125 10.6875 9.25 C10.0275 9.91 9.3675 10.57 8.6875 11.25 C9.1825 11.62125 9.6775 11.9925 10.1875 12.375 C11.6875 14.25 11.6875 14.25 12.125 17.1875 C11.58524072 20.96581496 10.69877215 21.97119946 7.6875 24.25 C4.26417654 26.26371968 1.38858244 26.33461344 -2.4921875 26.296875 C-3.39437012 26.29010742 -4.29655273 26.28333984 -5.22607422 26.27636719 C-6.25885498 26.26331543 -6.25885498 26.26331543 -7.3125 26.25 C-7.34136751 22.10418113 -7.35925327 17.95838784 -7.375 13.8125 C-7.38337891 12.62849609 -7.39175781 11.44449219 -7.40039062 10.22460938 C-7.40361328 9.09990234 -7.40683594 7.97519531 -7.41015625 6.81640625 C-7.41539307 5.77427979 -7.42062988 4.73215332 -7.42602539 3.65844727 C-7.20193138 -1.09571925 -4.09818145 0.0547032 0 0 Z M-0.3125 5.25 C-0.3125 6.57 -0.3125 7.89 -0.3125 9.25 C1.0075 8.92 2.3275 8.59 3.6875 8.25 C3.6875 7.26 3.6875 6.27 3.6875 5.25 C2.3675 5.25 1.0475 5.25 -0.3125 5.25 Z M-0.3125 15.25 C-0.3125 16.9 -0.3125 18.55 -0.3125 20.25 C1.3375 19.59 2.9875 18.93 4.6875 18.25 C4.3575 17.26 4.0275 16.27 3.6875 15.25 C2.3675 15.25 1.0475 15.25 -0.3125 15.25 Z " fill="#5A18E6" transform="translate(216.3125,241.75)"/>
<path d="M0 0 C0.8125 1.625 0.8125 1.625 1 4 C-0.23971611 5.46808486 -1.48528338 6.93255919 -2.78515625 8.34765625 C-5.09951079 11.4954761 -5 15.22213569 -5 19 C-5 20.32 -5 21.64 -5 23 C-1.08936776 24.47047336 -1.08936776 24.47047336 3 25 C3 25.66 3 26.32 3 27 C4.32 26.67 5.64 26.34 7 26 C7 26.66 7 27.32 7 28 C8.65 27.67 10.3 27.34 12 27 C12.495 28.485 12.495 28.485 13 30 C13.91523438 30.13277344 14.83046875 30.26554687 15.7734375 30.40234375 C16.96195313 30.57894531 18.15046875 30.75554687 19.375 30.9375 C20.55835938 31.11152344 21.74171875 31.28554688 22.9609375 31.46484375 C26 32 26 32 28 33 C29.35083198 33.17403357 30.70585728 33.31685482 32.0625 33.4375 C33.361875 33.623125 34.66125 33.80875 36 34 C36.33 34.66 36.66 35.32 37 36 C18.78358585 37.022543 2.31870472 30.74640056 -13.75 22.875 C-14.75148071 22.38833862 -14.75148071 22.38833862 -15.77319336 21.8918457 C-19.44844804 20.02940791 -22.27399381 18.09773431 -25 15 C-23.05780718 14.02890359 -21.11544495 13.05818268 -19.171875 12.08984375 C-17.31531568 11.15822495 -15.4690365 10.20616707 -13.625 9.25 C-11 8 -11 8 -9 8 C-8.67 7.34 -8.34 6.68 -8 6 C-6.01310269 4.64721885 -4.01254782 3.31431695 -2 2 C-1.34 1.34 -0.68 0.68 0 0 Z " fill="#1A205B" transform="translate(124,256)"/>
<path d="M0 0 C2.5 0.125 2.5 0.125 3.5 1.125 C3.52900608 3.04166125 3.48652425 4.95948937 3.4140625 6.875 C3.37023437 8.0403125 3.32640625 9.205625 3.28125 10.40625 C3.2296875 11.6334375 3.178125 12.860625 3.125 14.125 C3.08117187 15.3521875 3.03734375 16.579375 2.9921875 17.84375 C2.62766417 26.99733583 2.62766417 26.99733583 1.5 28.125 C-0.62119924 28.27693163 -2.74855315 28.34683514 -4.875 28.375 C-6.03773438 28.40078125 -7.20046875 28.4265625 -8.3984375 28.453125 C-11.5 28.125 -11.5 28.125 -13.3515625 26.734375 C-15.88965118 23.17759767 -15.79392499 20.46039357 -15.5 16.125 C-13.84860695 12.5863006 -12.78394771 11.31429847 -9.5 9.125 C-6.3125 9 -6.3125 9 -3.5 9.125 C-3.520625 7.825625 -3.54125 6.52625 -3.5625 5.1875 C-3.58399454 3.83334367 -3.57148199 2.47743917 -3.5 1.125 C-2.5 0.125 -2.5 0.125 0 0 Z M-6.5 14.125 C-8.84973818 16.02255144 -8.84973818 16.02255144 -8.625 19.25 C-8.58375 20.19875 -8.5425 21.1475 -8.5 22.125 C-7.51 21.795 -6.52 21.465 -5.5 21.125 C-5.17 19.145 -4.84 17.165 -4.5 15.125 C-5.16 14.795 -5.82 14.465 -6.5 14.125 Z " fill="#5313DF" transform="translate(284.5,239.875)"/>
<path d="M0 0 C1.08667969 0.01804688 2.17335938 0.03609375 3.29296875 0.0546875 C4.54013672 0.08949219 4.54013672 0.08949219 5.8125 0.125 C6.88560858 3.39685553 6.70513102 5.55447592 5.875 8.875 C5.68035156 9.67421875 5.48570312 10.4734375 5.28515625 11.296875 C5.12917969 11.90015625 4.97320312 12.5034375 4.8125 13.125 C7.2875 13.62 7.2875 13.62 9.8125 14.125 C9.125 16.0625 9.125 16.0625 7.8125 18.125 C4.36789522 19.30341743 2.24270875 18.98255219 -1.1875 18.125 C-1.991875 18.33125 -2.79625 18.5375 -3.625 18.75 C-6.1875 19.125 -6.1875 19.125 -8.9375 18.1875 C-11.62820244 15.72102277 -12.08869361 13.80282978 -12.328125 10.19140625 C-12.10841613 6.96290642 -10.96201487 4.7867723 -9.1875 2.125 C-5.66070901 -0.22619399 -4.15870515 -0.08943452 0 0 Z M-3.1875 5.125 C-5.52141203 7.90614056 -5.52141203 7.90614056 -4.8125 10.8125 C-4.60625 11.575625 -4.4 12.33875 -4.1875 13.125 C-2.58335785 11.93976003 -2.58335785 11.93976003 -1.1875 10.125 C-0.93680087 7.49929296 -0.93680087 7.49929296 -1.1875 5.125 C-1.8475 5.125 -2.5075 5.125 -3.1875 5.125 Z " fill="#5828C9" transform="translate(334.1875,248.875)"/>
<path d="M0 0 C1.65 0.33 3.3 0.66 5 1 C4.67 4.96 4.34 8.92 4 13 C4.66 13 5.32 13 6 13 C6.66 9.04 7.32 5.08 8 1 C9.65 0.67 11.3 0.34 13 0 C13.66 0.66 14.32 1.32 15 2 C14.98252073 4.75589777 14.86136729 7.38786676 14.625 10.125 C14.56828125 10.87910156 14.5115625 11.63320313 14.453125 12.41015625 C14.3115535 14.27418096 14.15700041 16.13721137 14 18 C8.68180053 19.14988097 4.37817807 18.81180046 -1 18 C-2.81131778 14.17533283 -3.18523014 11.51018017 -2.75 7.3125 C-2.66234375 6.35988281 -2.5746875 5.40726563 -2.484375 4.42578125 C-2 2 -2 2 0 0 Z " fill="#5315DC" transform="translate(233,249)"/>
<path d="M0 0 C1.9375 1.125 1.9375 1.125 3 3 C2.56521739 8.43478261 2.56521739 8.43478261 1 10 C1.99 10.66 2.98 11.32 4 12 C3.52204176 16.54060325 3.52204176 16.54060325 1.4375 18.375 C-2.78740017 19.45830774 -7.13595998 19.08234582 -10.9375 16.875 C-12.63126893 13.88599601 -12.88412468 11.4183218 -13 8 C-11.83718318 4.75635307 -10.94829336 2.71939496 -8.1875 0.625 C-5.2990977 -0.2002578 -2.98871474 -0.31794838 0 0 Z M-5 5 C-5.33 5.66 -5.66 6.32 -6 7 C-5.01 6.67 -4.02 6.34 -3 6 C-3.66 5.67 -4.32 5.34 -5 5 Z " fill="#6131DB" transform="translate(375,249)"/>
<path d="M0 0 C1.2065625 0.0309375 1.2065625 0.0309375 2.4375 0.0625 C3.93571059 3.43347383 4.4375 5.26692119 4.4375 9.0625 C5.0975 9.0625 5.7575 9.0625 6.4375 9.0625 C6.56125 8.134375 6.685 7.20625 6.8125 6.25 C7.4375 3.0625 7.4375 3.0625 9.4375 0.0625 C11.0875 0.3925 12.7375 0.7225 14.4375 1.0625 C13.79123285 7.20203793 11.8949445 14.6050555 7.4375 19.0625 C4.8125 19.1875 4.8125 19.1875 2.4375 19.0625 C-0.37900034 13.27910368 -2.82835354 7.51147281 -3.5625 1.0625 C-2.5625 0.0625 -2.5625 0.0625 0 0 Z " fill="#5922D5" transform="translate(347.5625,248.9375)"/>
<path d="M0 0 C1.4540625 0.0309375 1.4540625 0.0309375 2.9375 0.0625 C2.79938078 4.37528385 2.65071891 8.68763953 2.5 13 C2.46068359 14.23169922 2.42136719 15.46339844 2.38085938 16.73242188 C2.33896484 17.90224609 2.29707031 19.07207031 2.25390625 20.27734375 C2.21724854 21.36136475 2.18059082 22.44538574 2.14282227 23.56225586 C1.9375 26.0625 1.9375 26.0625 0.9375 27.0625 C-1.5625 27.1875 -1.5625 27.1875 -4.0625 27.0625 C-5.0625 26.0625 -5.0625 26.0625 -5.1953125 23.03515625 C-5.14949819 0.1050918 -5.14949819 0.1050918 0 0 Z " fill="#5110E1" transform="translate(265.0625,240.9375)"/>
<path d="M0 0 C0.66 0.33 1.32 0.66 2 1 C2 2.65 2 4.3 2 6 C-1.05847848 6.54372951 -3.88772805 7 -7 7 C-9.60280568 7.32041397 -9.60280568 7.32041397 -12 8 C-12.33 8.66 -12.66 9.32 -13 10 C-13.98731742 11.34275169 -14.98594743 12.67732273 -16 14 C-16.66 13.67 -17.32 13.34 -18 13 C-17.67 21.58 -17.34 30.16 -17 39 C-8.26371215 36.89666927 -8.26371215 36.89666927 -0.9375 33.25 C1.22265625 31.890625 1.22265625 31.890625 3 31 C3.66 31.33 4.32 31.66 5 32 C2.79283537 33.27289905 0.58432515 34.5433605 -1.625 35.8125 C-2.24246094 36.16892578 -2.85992187 36.52535156 -3.49609375 36.89257812 C-4.73101253 37.60103153 -5.96964112 38.30305794 -7.21191406 38.99853516 C-8.86614196 39.92502926 -10.50790418 40.87368642 -12.1484375 41.82421875 C-15 43 -15 43 -20 42 C-20 31.77 -20 21.54 -20 11 C-16.74125 9.164375 -13.4825 7.32875 -10.125 5.4375 C-9.09906738 4.85411865 -8.07313477 4.2707373 -7.01611328 3.66967773 C-6.20899902 3.22052002 -5.40188477 2.7713623 -4.5703125 2.30859375 C-3.74289551 1.84251709 -2.91547852 1.37644043 -2.06298828 0.89624023 C-1.38220215 0.60048096 -0.70141602 0.30472168 0 0 Z " fill="#4E3DAF" transform="translate(194,225)"/>
<path d="M0 0 C1.2065625 0.0309375 1.2065625 0.0309375 2.4375 0.0625 C2.91948463 1.31141614 3.39795677 2.56168808 3.875 3.8125 C4.27525391 4.85664063 4.27525391 4.85664063 4.68359375 5.921875 C5.39896693 7.95309003 5.95115652 9.9660291 6.4375 12.0625 C6.71464844 11.28003906 6.99179687 10.49757812 7.27734375 9.69140625 C7.63957031 8.67949219 8.00179688 7.66757813 8.375 6.625 C8.73464844 5.61566406 9.09429687 4.60632813 9.46484375 3.56640625 C10.4375 1.0625 10.4375 1.0625 11.4375 0.0625 C13.10367115 0.02186168 14.77138095 0.019779 16.4375 0.0625 C16.12089385 6.07801686 14.87685438 11.37233267 13 17.0625 C12.78255127 17.7335376 12.56510254 18.4045752 12.34106445 19.09594727 C10.68947532 23.93651234 10.68947532 23.93651234 8.4375 25.0625 C8.7675 21.7625 9.0975 18.4625 9.4375 15.0625 C8.1175 14.7325 6.7975 14.4025 5.4375 14.0625 C4.7775 13.7325 4.1175 13.4025 3.4375 13.0625 C2.8046875 10.77734375 2.8046875 10.77734375 2.3125 8 C2.14492188 7.08089844 1.97734375 6.16179687 1.8046875 5.21484375 C1.68351562 4.50457031 1.56234375 3.79429687 1.4375 3.0625 C0.1175 2.7325 -1.2025 2.4025 -2.5625 2.0625 C-2.68625 2.866875 -2.81 3.67125 -2.9375 4.5 C-3.14375 5.345625 -3.35 6.19125 -3.5625 7.0625 C-4.5525 7.5575 -4.5525 7.5575 -5.5625 8.0625 C-3.38616071 0.08258929 -3.38616071 0.08258929 0 0 Z " fill="#5121C4" transform="translate(305.5625,241.9375)"/>
<path d="M0 0 C0.85412378 5.55180459 -1.2361932 8.60608609 -4.35546875 12.9453125 C-7.3511589 16.68814627 -9.60008477 18.68303806 -14.3125 19.75 C-15.6428125 19.87375 -15.6428125 19.87375 -17 20 C-16.505 18.515 -16.505 18.515 -16 17 C-14.35 17 -12.7 17 -11 17 C-11 16.34 -11 15.68 -11 15 C-11.66 15 -12.32 15 -13 15 C-13.33 12.36 -13.66 9.72 -14 7 C-13.31292969 6.66226562 -12.62585938 6.32453125 -11.91796875 5.9765625 C-11.01691406 5.53054688 -10.11585938 5.08453125 -9.1875 4.625 C-8.29417969 4.18414062 -7.40085938 3.74328125 -6.48046875 3.2890625 C-0.15151515 0 -0.15151515 0 0 0 Z " fill="#3C379C" transform="translate(198,263)"/>
<path d="M0 0 C2.5 0.125 2.5 0.125 3.5 1.125 C3.52900608 3.04166125 3.48652425 4.95948937 3.4140625 6.875 C3.37023437 8.0403125 3.32640625 9.205625 3.28125 10.40625 C3.2296875 11.6334375 3.178125 12.860625 3.125 14.125 C3.08117187 15.3521875 3.03734375 16.579375 2.9921875 17.84375 C2.62766417 26.99733583 2.62766417 26.99733583 1.5 28.125 C-0.62119924 28.27693163 -2.74855315 28.34683514 -4.875 28.375 C-6.03773438 28.40078125 -7.20046875 28.4265625 -8.3984375 28.453125 C-11.5 28.125 -11.5 28.125 -13.3515625 26.734375 C-15.88965118 23.17759767 -15.79392499 20.46039357 -15.5 16.125 C-13.84860695 12.5863006 -12.78394771 11.31429847 -9.5 9.125 C-6.3125 9 -6.3125 9 -3.5 9.125 C-3.520625 7.825625 -3.54125 6.52625 -3.5625 5.1875 C-3.58399454 3.83334367 -3.57148199 2.47743917 -3.5 1.125 C-2.5 0.125 -2.5 0.125 0 0 Z M-0.5 3.125 C-1.83333333 6.125 -1.83333333 6.125 -0.5 9.125 C-1.27085937 9.30675781 -2.04171875 9.48851562 -2.8359375 9.67578125 C-3.83882813 9.92714844 -4.84171875 10.17851562 -5.875 10.4375 C-6.87273437 10.68113281 -7.87046875 10.92476562 -8.8984375 11.17578125 C-11.8084986 11.94693858 -11.8084986 11.94693858 -13.5 15.125 C-13.81560324 17.34082589 -13.81560324 17.34082589 -13.75 19.6875 C-13.75515625 20.47253906 -13.7603125 21.25757813 -13.765625 22.06640625 C-13.68429262 24.34790968 -13.68429262 24.34790968 -11.5 26.125 C-7.15604929 26.40417421 -2.85649033 26.21042138 1.5 26.125 C1.83 18.535 2.16 10.945 2.5 3.125 C1.51 3.125 0.52 3.125 -0.5 3.125 Z " fill="#5128C0" transform="translate(284.5,239.875)"/>
<path d="M0 0 C2.97 0 5.94 0 9 0 C9 3.63 9 7.26 9 11 C10.65 11.33 12.3 11.66 14 12 C13.3125 13.9375 13.3125 13.9375 12 16 C9.5625 16.875 9.5625 16.875 7 17 C6.01 16.34 5.02 15.68 4 15 C0.87478167 14.83300768 0.87478167 14.83300768 -2 15 C-2.66 13.68 -3.32 12.36 -4 11 C-1.69 11 0.62 11 3 11 C3.66 8.03 4.32 5.06 5 2 C3.35 1.67 1.7 1.34 0 1 C0 0.67 0 0.34 0 0 Z " fill="#5A18E9" transform="translate(330,251)"/>
<path d="M0 0 C1.32 0.33 2.64 0.66 4 1 C4.33 4.63 4.66 8.26 5 12 C6.32 12 7.64 12 9 12 C9.76173392 16.3164922 10.16063604 19.74433453 9 24 C7.35 24 5.7 24 4 24 C1.74001405 20.40537669 1.79131913 17.43404325 1.875 13.25 C1.90207031 11.49429688 1.90207031 11.49429688 1.9296875 9.703125 C1.95289063 8.81109375 1.97609375 7.9190625 2 7 C1.34 7 0.68 7 0 7 C0 4.69 0 2.38 0 0 Z " fill="#5B1DE1" transform="translate(291,244)"/>
<path d="M0 0 C1.65 0 3.3 0 5 0 C5.02690104 2.79173055 5.04679053 5.58320348 5.0625 8.375 C5.07087891 9.1690625 5.07925781 9.963125 5.08789062 10.78125 C5.11328125 16.7734375 5.11328125 16.7734375 4 19 C2.33388095 19.042721 0.66617115 19.04063832 -1 19 C-2.69455034 17.30544966 -2.17173578 15.1891874 -2.1875 12.875 C-2.15688893 8.17926157 -1.56759047 4.40884818 0 0 Z " fill="#4E22BB" transform="translate(252,249)"/>
<path d="M0 0 C1.15113281 -0.02578125 2.30226562 -0.0515625 3.48828125 -0.078125 C6.93198378 0.27507526 8.32185482 0.7571074 10.6875 3.25 C10.9375 6.4375 10.9375 6.4375 10.6875 9.25 C9.6975 9.745 9.6975 9.745 8.6875 10.25 C8.6875 7.94 8.6875 5.63 8.6875 3.25 C7.3675 3.58 6.0475 3.91 4.6875 4.25 C4.749375 5.19875 4.81125 6.1475 4.875 7.125 C4.813125 8.15625 4.75125 9.1875 4.6875 10.25 C3.6975 10.91 2.7075 11.57 1.6875 12.25 C1.0275 11.92 0.3675 11.59 -0.3125 11.25 C-0.3125 10.59 -0.3125 9.93 -0.3125 9.25 C0.6775 8.92 1.6675 8.59 2.6875 8.25 C3.0175 7.26 3.3475 6.27 3.6875 5.25 C2.3675 4.92 1.0475 4.59 -0.3125 4.25 C1.3375 3.59 2.9875 2.93 4.6875 2.25 C1.3875 1.92 -1.9125 1.59 -5.3125 1.25 C-5.3125 8.84 -5.3125 16.43 -5.3125 24.25 C-4.3225 24.25 -3.3325 24.25 -2.3125 24.25 C-2.3125 24.91 -2.3125 25.57 -2.3125 26.25 C-3.9625 26.25 -5.6125 26.25 -7.3125 26.25 C-7.34136751 22.10418113 -7.35925327 17.95838784 -7.375 13.8125 C-7.38337891 12.62849609 -7.39175781 11.44449219 -7.40039062 10.22460938 C-7.40361328 9.09990234 -7.40683594 7.97519531 -7.41015625 6.81640625 C-7.41539307 5.77427979 -7.42062988 4.73215332 -7.42602539 3.65844727 C-7.20193138 -1.09571925 -4.09818145 0.0547032 0 0 Z " fill="#5425C4" transform="translate(216.3125,241.75)"/>
<path d="M0 0 C1.65 0.33 3.3 0.66 5 1 C4.36843005 6.05255964 2.86540627 10.29593201 1 15 C0.01 15 -0.98 15 -2 15 C-2 15.66 -2 16.32 -2 17 C-3.65 16.67 -5.3 16.34 -7 16 C-7.33 15.01 -7.66 14.02 -8 13 C-7.01 13 -6.02 13 -5 13 C-5 12.34 -5 11.68 -5 11 C-4.34 11 -3.68 11 -3 11 C-2.814375 9.1128125 -2.814375 9.1128125 -2.625 7.1875 C-2.30131941 3.89674737 -1.93395001 2.90092502 0 0 Z " fill="#5E19EC" transform="translate(357,249)"/>
<path d="M0 0 C1.67542976 0.28604898 3.34385343 0.61781233 5 1 C6.12880057 4.31114834 7.21302675 7.58978257 8 11 C8.33 10.34 8.66 9.68 9 9 C9.66 9 10.32 9 11 9 C13.20223007 11.20223007 13.608951 11.97874472 14 15 C13.44140625 17.578125 13.44140625 17.578125 12.5625 20.25 C12.27503906 21.14203125 11.98757813 22.0340625 11.69140625 22.953125 C11.46324219 23.62859375 11.23507812 24.3040625 11 25 C9.95297814 21.2735915 9.92557943 17.86986958 10 14 C8.68 14 7.36 14 6 14 C5.34 10.37 4.68 6.74 4 3 C3.34 3 2.68 3 2 3 C1.67 4.98 1.34 6.96 1 9 C1.66 9 2.32 9 3 9 C3 11.97 3 14.94 3 18 C0.31629821 12.63259643 -1.55321845 7.08540299 -1 1 C-0.67 0.67 -0.34 0.34 0 0 Z " fill="#511FCB" transform="translate(290,242)"/>
<path d="M0 0 C1.32 0.66 2.64 1.32 4 2 C4 11.9 4 21.8 4 32 C-0.03108113 31.19378377 -1.6893843 30.83812629 -4.91796875 28.8203125 C-5.61470703 28.38589844 -6.31144531 27.95148438 -7.02929688 27.50390625 C-8.09760742 26.82134766 -8.09760742 26.82134766 -9.1875 26.125 C-10.27321289 25.45404297 -10.27321289 25.45404297 -11.38085938 24.76953125 C-14.73526333 22.65391647 -16.75538772 21.36691842 -19 18 C-16.36278505 18.95232762 -14.21996549 19.82815196 -12 21.5625 C-9.6750041 23.2335908 -7.77857279 23.47432407 -5 24 C-4.67 24.66 -4.34 25.32 -4 26 C-2.02 26 -0.04 26 2 26 C2.05799124 22.22923111 2.09359306 18.45857666 2.125 14.6875 C2.14175781 13.61564453 2.15851563 12.54378906 2.17578125 11.43945312 C2.18222656 10.41142578 2.18867188 9.38339844 2.1953125 8.32421875 C2.20578613 7.37635498 2.21625977 6.42849121 2.22705078 5.4519043 C2.17223875 2.74310751 2.17223875 2.74310751 0 0 Z " fill="#8061C5" transform="translate(166,235)"/>
<path d="M0 0 C1.67542976 0.28604898 3.34385343 0.61781233 5 1 C5.98844951 4.94647618 5.96191905 8.27392964 5.5625 12.3125 C5.46066406 13.38113281 5.35882813 14.44976562 5.25390625 15.55078125 C5.17011719 16.35902344 5.08632812 17.16726563 5 18 C3.35 18.33 1.7 18.66 0 19 C-0.66 18.01 -1.32 17.02 -2 16 C-0.35 15.67 1.3 15.34 3 15 C3 10.71 3 6.42 3 2 C2.34 2 1.68 2 1 2 C1.020625 3.258125 1.04125 4.51625 1.0625 5.8125 C1.10886083 8.64051087 0.91692961 10.24921116 0 13 C-0.99 13 -1.98 13 -3 13 C-2.69240822 11.02006459 -2.3787932 9.04106401 -2.0625 7.0625 C-1.88847656 5.96035156 -1.71445313 4.85820312 -1.53515625 3.72265625 C-1 1 -1 1 0 0 Z " fill="#5122C6" transform="translate(242,249)"/>
<path d="M0 0 C2 2 2 2 2.1875 4.5625 C2 7 2 7 1 8 C-1.01594582 8.23427778 -3.038474 8.41336124 -5.0625 8.5625 C-6.71958984 8.68818359 -6.71958984 8.68818359 -8.41015625 8.81640625 C-9.26480469 8.87699219 -10.11945313 8.93757813 -11 9 C-10.75 5.625 -10.75 5.625 -10 2 C-7.02983058 -0.53014432 -3.77094896 -0.32790861 0 0 Z M-5 3 C-5.33 3.66 -5.66 4.32 -6 5 C-5.01 4.67 -4.02 4.34 -3 4 C-3.66 3.67 -4.32 3.34 -5 3 Z " fill="#5411E2" transform="translate(375,251)"/>
<path d="M0 0 C1.65 0.33 3.3 0.66 5 1 C5.33 4.3 5.66 7.6 6 11 C6.66 11 7.32 11 8 11 C7.67 12.32 7.34 13.64 7 15 C6.01 14.67 5.02 14.34 4 14 C4 12.35 4 10.7 4 9 C2.35 9.66 0.7 10.32 -1 11 C-1.12375 10.360625 -1.2475 9.72125 -1.375 9.0625 C-1.58125 8.381875 -1.7875 7.70125 -2 7 C-2.66 6.67 -3.32 6.34 -4 6 C-3.525625 5.566875 -3.05125 5.13375 -2.5625 4.6875 C-0.76313043 2.97690387 -0.76313043 2.97690387 0 0 Z " fill="#5815E9" transform="translate(303,244)"/>
<path d="M0 0 C1.4540625 0.0309375 1.4540625 0.0309375 2.9375 0.0625 C2.9375 2.7025 2.9375 5.3425 2.9375 8.0625 C2.6075 8.0625 2.2775 8.0625 1.9375 8.0625 C1.9375 5.7525 1.9375 3.4425 1.9375 1.0625 C0.6175 1.0625 -0.7025 1.0625 -2.0625 1.0625 C-3.99452835 12.79752731 -3.99452835 12.79752731 -2.0625 24.0625 C-1.0725 24.3925 -0.0825 24.7225 0.9375 25.0625 C0.9375 19.7825 0.9375 14.5025 0.9375 9.0625 C1.2675 9.0625 1.5975 9.0625 1.9375 9.0625 C1.96434312 11.87506281 1.98426188 14.68737241 2 17.5 C2.00837891 18.30244141 2.01675781 19.10488281 2.02539062 19.93164062 C2.0340143 21.97545221 1.9897815 24.01933902 1.9375 26.0625 C0.9375 27.0625 0.9375 27.0625 -1.5625 27.1875 C-4.0625 27.0625 -4.0625 27.0625 -5.0625 26.0625 C-5.42402472 17.82186297 -5.5278323 9.20323499 -4.0625 1.0625 C-3.0625 0.0625 -3.0625 0.0625 0 0 Z " fill="#552DC4" transform="translate(265.0625,240.9375)"/>
<path d="M0 0 C0.66 0.33 1.32 0.66 2 1 C-0.52860471 2.56761479 -3.06909111 4.10309278 -5.625 5.625 C-6.33785156 6.07101563 -7.05070313 6.51703125 -7.78515625 6.9765625 C-13.1848101 10.14700146 -13.1848101 10.14700146 -17.3359375 9.3984375 C-20 8 -20 8 -23 6 C-23 5.34 -23 4.68 -23 4 C-18.89059426 3.22948642 -16.2485617 2.95660034 -12.0625 3.6875 C-7.80585008 4.37619774 -5.27070512 2.9966023 -1.6640625 0.8125 C-1.11492187 0.544375 -0.56578125 0.27625 0 0 Z " fill="#8C6BD5" transform="translate(187,223)"/>
<path d="M0 0 C0.66 0.33 1.32 0.66 2 1 C-2.75 5 -2.75 5 -5 5 C-5.33 5.66 -5.66 6.32 -6 7 C-7.155 7.474375 -8.31 7.94875 -9.5 8.4375 C-10.655 8.953125 -11.81 9.46875 -13 10 C-13.33 10.99 -13.66 11.98 -14 13 C-11.03 14.65 -8.06 16.3 -5 18 C-8 19 -8 19 -10.48046875 18.00390625 C-11.37378906 17.52824219 -12.26710937 17.05257812 -13.1875 16.5625 C-14.08855469 16.08941406 -14.98960937 15.61632812 -15.91796875 15.12890625 C-16.60503906 14.75636719 -17.29210937 14.38382813 -18 14 C-18 12.68 -18 11.36 -18 10 C-15.04894616 8.2995208 -12.08809878 6.61688907 -9.125 4.9375 C-8.28324219 4.45216797 -7.44148437 3.96683594 -6.57421875 3.46679688 C-5.76855469 3.01240234 -4.96289062 2.55800781 -4.1328125 2.08984375 C-3.38918457 1.66566162 -2.64555664 1.24147949 -1.87939453 0.80444336 C-1.25919434 0.53897705 -0.63899414 0.27351074 0 0 Z " fill="#8869C8" transform="translate(168,208)"/>
<path d="M0 0 C0 3 0 3 -2.125 5.375 C-3.548125 6.674375 -3.548125 6.674375 -5 8 C-5.86625 8.886875 -6.7325 9.77375 -7.625 10.6875 C-11.70247661 14.09970411 -16.88113615 14.38974399 -22 15 C-22 14.34 -22 13.68 -22 13 C-20.3962669 12.35309078 -18.79199694 11.70751236 -17.1875 11.0625 C-16.29417969 10.70285156 -15.40085937 10.34320313 -14.48046875 9.97265625 C-12.6729091 9.26386514 -10.84192591 8.6139753 -9 8 C-8.67 7.34 -8.34 6.68 -8 6 C-6.01310269 4.64721885 -4.01254782 3.31431695 -2 2 C-1.34 1.34 -0.68 0.68 0 0 Z " fill="#202559" transform="translate(124,256)"/>
<path d="M0 0 C0.66 0 1.32 0 2 0 C2 7.59 2 15.18 2 23 C2.99 23 3.98 23 5 23 C5 23.66 5 24.32 5 25 C3.35 25 1.7 25 0 25 C0 16.75 0 8.5 0 0 Z " fill="#5930C2" transform="translate(209,243)"/>
<path d="M0 0 C1.9375 1.25 1.9375 1.25 3 3 C2.6875 5.1875 2.6875 5.1875 2 7 C1.34 5.68 0.68 4.36 0 3 C-2.91652174 2.83318891 -2.91652174 2.83318891 -6 3 C-6.66 3.66 -7.32 4.32 -8 5 C-8.66 4.67 -9.32 4.34 -10 4 C-10 7.96 -10 11.92 -10 16 C-10.66 15.67 -11.32 15.34 -12 15 C-13.02504759 10.97865944 -13.22345356 8.62331784 -11.8125 4.6875 C-8.64818406 -0.00441674 -5.55899278 -0.59138221 0 0 Z " fill="#5326C2" transform="translate(375,249)"/>
<path d="M0 0 C0.66 0 1.32 0 2 0 C2 2.97 2 5.94 2 9 C-6.03571429 11.27678571 -6.03571429 11.27678571 -10 10 C-9.67 8.35 -9.34 6.7 -9 5 C-8.34 5 -7.68 5 -7 5 C-6.67 5.66 -6.34 6.32 -6 7 C-4.35 6.67 -2.7 6.34 -1 6 C-0.67 4.02 -0.34 2.04 0 0 Z " fill="#5912ED" transform="translate(282,255)"/>
<path d="M0 0 C3.63 0 7.26 0 11 0 C9.515 1.485 9.515 1.485 8 3 C7.01 3 6.02 3 5 3 C5 4.65 5 6.3 5 8 C3.35 7.67 1.7 7.34 0 7 C0 4.69 0 2.38 0 0 Z " fill="#5819E2" transform="translate(211,243)"/>
<path d="M0 0 C0.66 0.33 1.32 0.66 2 1 C2 2.65 2 4.3 2 6 C-1.05847848 6.54372951 -3.88772805 7 -7 7 C-9.60280568 7.32041397 -9.60280568 7.32041397 -12 8 C-12.33 8.66 -12.66 9.32 -13 10 C-15.5625 10.625 -15.5625 10.625 -18 11 C-14.8957689 7.67982753 -11.41726384 5.85848416 -7.4375 3.75 C-6.75236328 3.37359375 -6.06722656 2.9971875 -5.36132812 2.609375 C-3.60800149 1.67334979 -1.80643507 0.82890879 0 0 Z " fill="#4F40B0" transform="translate(194,225)"/>
<path d="M0 0 C1.98 0.99 3.96 1.98 6 3 C5.071875 3.1546875 5.071875 3.1546875 4.125 3.3125 C1.63473516 3.87525373 1.63473516 3.87525373 0 7 C-0.29028721 9.0769318 -0.29028721 9.0769318 -0.23046875 11.34375 C-0.22853516 12.17777344 -0.22660156 13.01179687 -0.22460938 13.87109375 C-0.21236328 14.73863281 -0.20011719 15.60617188 -0.1875 16.5 C-0.18685547 17.36753906 -0.18621094 18.23507813 -0.18554688 19.12890625 C-0.15453168 24.14290583 -0.15453168 24.14290583 1 29 C0.01 28.67 -0.98 28.34 -2 28 C-2.05783842 23.70838953 -2.0935412 19.41687855 -2.125 15.125 C-2.14175781 13.90167969 -2.15851563 12.67835938 -2.17578125 11.41796875 C-2.18222656 10.25136719 -2.18867188 9.08476562 -2.1953125 7.8828125 C-2.20578613 6.80402832 -2.21625977 5.72524414 -2.22705078 4.61376953 C-2 2 -2 2 0 0 Z " fill="#8465C0" transform="translate(145,223)"/>
<path d="M0 0 C1.65 0.33 3.3 0.66 5 1 C4.40895235 5.84659077 3.02055843 9.60748167 1 14 C-0.0326802 11.21176345 -0.04509293 10.1322726 0.9375 7.25 C1.288125 6.5075 1.63875 5.765 2 5 C1.01 5 0.02 5 -1 5 C-1.66 6.32 -2.32 7.64 -3 9 C-2.5020163 5.26512223 -2.12508244 3.18762365 0 0 Z " fill="#5022C4" transform="translate(357,249)"/>
<path d="M0 0 C2.125 0.375 2.125 0.375 4 1 C4 2.32 4 3.64 4 5 C0.0186217 6.3271261 -3.85045227 6.06915913 -8 6 C-8 5.01 -8 4.02 -8 3 C-6.576875 2.814375 -6.576875 2.814375 -5.125 2.625 C-1.91332809 2.28312823 -1.91332809 2.28312823 0 0 Z " fill="#4821CC" transform="translate(375,260)"/>
<path d="M0 0 C5.7241714 1.52780375 11.37849142 3.12616381 17 5 C17.66 5 18.32 5 19 5 C18 8 18 8 16 9 C14.30419922 8.37915039 14.30419922 8.37915039 12.3046875 7.34765625 C11.58925781 6.98349609 10.87382813 6.61933594 10.13671875 6.24414062 C9.39035156 5.85419922 8.64398438 5.46425781 7.875 5.0625 C6.74384766 4.48338867 6.74384766 4.48338867 5.58984375 3.89257812 C3.72290903 2.93547868 1.86097372 1.96863894 0 1 C0 0.67 0 0.34 0 0 Z " fill="#1A2054" transform="translate(108,276)"/>
<path d="M0 0 C1.32 0 2.64 0 4 0 C4.21278058 4.46839215 3.59138085 7.82262526 2 12 C0.68 11.67 -0.64 11.34 -2 11 C-1.34 7.37 -0.68 3.74 0 0 Z " fill="#5917E8" transform="translate(263,242)"/>
<path d="M0 0 C2.5 0.125 2.5 0.125 3.5 1.125 C3.54063832 2.79117115 3.542721 4.45888095 3.5 6.125 C1.5085944 6.50633299 -0.49279077 6.83825582 -2.5 7.125 C-3.5 6.125 -3.5 6.125 -3.625 3.625 C-3.45661291 0.25725827 -3.36774173 0.16838709 0 0 Z " fill="#5124C7" transform="translate(254.5,240.875)"/>
<path d="M0 0 C2.5 0.125 2.5 0.125 3.5 1.125 C3.57179964 2.64428038 3.58392007 4.16667482 3.5625 5.6875 C3.55347656 6.51378906 3.54445313 7.34007812 3.53515625 8.19140625 C3.52355469 8.82949219 3.51195312 9.46757812 3.5 10.125 C3.17 10.125 2.84 10.125 2.5 10.125 C2.5 7.815 2.5 5.505 2.5 3.125 C1.51 3.455 0.52 3.785 -0.5 4.125 C-0.5 5.775 -0.5 7.425 -0.5 9.125 C-1.82 9.455 -3.14 9.785 -4.5 10.125 C-4.35950482 8.64531676 -4.21245174 7.16625484 -4.0625 5.6875 C-3.98128906 4.86378906 -3.90007812 4.04007813 -3.81640625 3.19140625 C-3.35298897 0.1648909 -3.10289423 0.15514471 0 0 Z " fill="#5B2ED0" transform="translate(284.5,239.875)"/>
<path d="M0 0 C1.67542976 0.28604898 3.34385343 0.61781233 5 1 C5.33 2.65 5.66 4.3 6 6 C5.525625 5.505 5.05125 5.01 4.5625 4.5 C3.24076302 2.88457803 3.24076302 2.88457803 2 3 C1.67 4.98 1.34 6.96 1 9 C1.66 9 2.32 9 3 9 C3 11.97 3 14.94 3 18 C0.31629821 12.63259643 -1.55321845 7.08540299 -1 1 C-0.67 0.67 -0.34 0.34 0 0 Z " fill="#4F24BF" transform="translate(290,242)"/>
<path d="M0 0 C0.99 0.33 1.98 0.66 3 1 C2.44894091 4.9492568 1.61064629 8.34920174 0 12 C-0.66 11.67 -1.32 11.34 -2 11 C-2.28571429 3.57142857 -2.28571429 3.57142857 0 0 Z " fill="#5915E9" transform="translate(317,245)"/>
<path d="M0 0 C0.66 0 1.32 0 2 0 C2 4.95 2 9.9 2 15 C1.01 14.67 0.02 14.34 -1 14 C-0.67 9.38 -0.34 4.76 0 0 Z " fill="#560EED" transform="translate(253,251)"/>
<path d="M0 0 C1.2065625 0.0309375 1.2065625 0.0309375 2.4375 0.0625 C2.96979326 1.32857607 3.48794544 2.60060412 4 3.875 C4.29003906 4.58269531 4.58007812 5.29039062 4.87890625 6.01953125 C5.4375 8.0625 5.4375 8.0625 4.4375 11.0625 C2.4924 8.14485 1.98473683 6.43712715 1.4375 3.0625 C0.1175 2.7325 -1.2025 2.4025 -2.5625 2.0625 C-2.68625 2.866875 -2.81 3.67125 -2.9375 4.5 C-3.14375 5.345625 -3.35 6.19125 -3.5625 7.0625 C-4.5525 7.5575 -4.5525 7.5575 -5.5625 8.0625 C-3.38616071 0.08258929 -3.38616071 0.08258929 0 0 Z " fill="#5D31C7" transform="translate(305.5625,241.9375)"/>
<path d="M0 0 C4.29 0 8.58 0 13 0 C12.67 1.32 12.34 2.64 12 4 C11.01 4 10.02 4 9 4 C9 4.66 9 5.32 9 6 C8.01 6.33 7.02 6.66 6 7 C5.01 6.34 4.02 5.68 3 5 C3.33 4.34 3.66 3.68 4 3 C2.68 2.67 1.36 2.34 0 2 C0 1.34 0 0.68 0 0 Z " fill="#36338D" transform="translate(170,271)"/>
<path d="M0 0 C1.65 0.33 3.3 0.66 5 1 C5 2.98 5 4.96 5 7 C4.01 6.67 3.02 6.34 2 6 C-0.00875442 6.27571139 -2.01178687 6.60235737 -4 7 C-3.525625 6.401875 -3.05125 5.80375 -2.5625 5.1875 C-0.83534256 2.99617076 -0.83534256 2.99617076 0 0 Z " fill="#621EE9" transform="translate(303,244)"/>
<path d="M0 0 C0.66 0 1.32 0 2 0 C2 4.29 2 8.58 2 13 C0.68 13.33 -0.64 13.66 -2 14 C-1.34 9.38 -0.68 4.76 0 0 Z " fill="#560BEB" transform="translate(243,251)"/>
<path d="M0 0 C0 0.99 0 1.98 0 3 C-0.99 3.66 -1.98 4.32 -3 5 C-1.125 1.125 -1.125 1.125 0 0 Z M-5 5 C-4.34 5.33 -3.68 5.66 -3 6 C-3.33 6.99 -3.66 7.98 -4 9 C-4.99 9 -5.98 9 -7 9 C-7.33 9.99 -7.66 10.98 -8 12 C-9.98 12 -11.96 12 -14 12 C-11.03716687 9.61327331 -8.05729491 7.2646629 -5 5 Z " fill="#1A206E" transform="translate(124,258)"/>
<path d="M0 0 C0 1.65 0 3.3 0 5 C-2.3125 5.6875 -2.3125 5.6875 -5 6 C-6.8125 4.5625 -6.8125 4.5625 -8 3 C-2.25 0 -2.25 0 0 0 Z " fill="#4B13D7" transform="translate(377,253)"/>
<path d="M0 0 C0.33 0.66 0.66 1.32 1 2 C3.52733235 2.65555119 3.52733235 2.65555119 6 3 C5.3125 4.9375 5.3125 4.9375 4 7 C1.12060581 7.93580311 -0.25509788 8.37245106 -3 7 C-3 6.34 -3 5.68 -3 5 C-1.02 5 0.96 5 3 5 C3 4.34 3 3.68 3 3 C2.01 3 1.02 3 0 3 C0 2.01 0 1.02 0 0 Z " fill="#5329C3" transform="translate(338,260)"/>
<path d="M0 0 C0.33 0 0.66 0 1 0 C0.97679687 0.84304687 0.95359375 1.68609375 0.9296875 2.5546875 C0.91164062 3.65039062 0.89359375 4.74609375 0.875 5.875 C0.84019531 7.51082031 0.84019531 7.51082031 0.8046875 9.1796875 C0.69939466 12.1371051 0.69939466 12.1371051 3 14 C1.35 14 -0.3 14 -2 14 C-2 10.37 -2 6.74 -2 3 C-1.34 3 -0.68 3 0 3 C0 2.01 0 1.02 0 0 Z " fill="#5220DB" transform="translate(252,253)"/>
<path d="M0 0 C2.625 0.375 2.625 0.375 5 1 C4.67 2.32 4.34 3.64 4 5 C4 4.01 4 3.02 4 2 C2.68 2 1.36 2 0 2 C0.309375 2.928125 0.309375 2.928125 0.625 3.875 C0.74875 4.57625 0.8725 5.2775 1 6 C0.34 6.66 -0.32 7.32 -1 8 C-1.64767793 10.57061311 -1.64767793 10.57061311 -2 13 C-2.33 13 -2.66 13 -3 13 C-2.88610125 11.20759337 -2.75852313 9.41605165 -2.625 7.625 C-2.55539063 6.62726563 -2.48578125 5.62953125 -2.4140625 4.6015625 C-2 2 -2 2 0 0 Z " fill="#5731C0" transform="translate(233,249)"/>
<path d="M0 0 C0.33 0 0.66 0 1 0 C1.31944345 3.51387796 1.43883512 5.37550387 -0.625 8.3125 C-3.43958033 10.31233339 -5.59319587 10.69029053 -9 11 C-5.44444444 7.19047619 -5.44444444 7.19047619 -2.8125 6.0625 C-0.70366317 5.10658251 -0.70366317 5.10658251 -0.25 2.375 C-0.1675 1.59125 -0.085 0.8075 0 0 Z " fill="#5124C7" transform="translate(227,256)"/>
<path d="M0 0 C-3.2811302 2.18742014 -5.33084356 2.54442806 -9.1875 3.125 C-10.27417969 3.29257812 -11.36085937 3.46015625 -12.48046875 3.6328125 C-13.31191406 3.75398438 -14.14335937 3.87515625 -15 4 C-15.33 3.34 -15.66 2.68 -16 2 C-10.61972975 0.80911014 -5.54708616 -0.2919519 0 0 Z " fill="#292C64" transform="translate(176,288)"/>
<path d="M0 0 C1.32 0.33 2.64 0.66 4 1 C4 3.31 4 5.62 4 8 C2.68 7.67 1.36 7.34 0 7 C0 4.69 0 2.38 0 0 Z " fill="#5B14ED" transform="translate(291,244)"/>
<path d="M0 0 C1.65 0 3.3 0 5 0 C5 0.66 5 1.32 5 2 C3.68 2 2.36 2 1 2 C1.350625 3.0725 1.70125 4.145 2.0625 5.25 C2.94680186 8.78720743 3.02880551 9.74811124 2 13 C1.46605821 11.5882217 0.94834896 10.17029756 0.4375 8.75 C0.14746094 7.96109375 -0.14257812 7.1721875 -0.44140625 6.359375 C-1.04522837 3.80896548 -0.8473932 2.44677771 0 0 Z " fill="#5029B4" transform="translate(345,249)"/>
<path d="M0 0 C0 2.64 0 5.28 0 8 C-1.32 7.34 -2.64 6.68 -4 6 C-4 4.35 -4 2.7 -4 1 C-2 0 -2 0 0 0 Z " fill="#5314E3" transform="translate(225,245)"/>
<path d="M0 0 C1.65 0 3.3 0 5 0 C4.88637738 1.4800841 4.75877092 2.95910074 4.625 4.4375 C4.55539062 5.26121094 4.48578125 6.08492187 4.4140625 6.93359375 C4.27742188 7.61550781 4.14078125 8.29742187 4 9 C3.01 9.495 3.01 9.495 2 10 C2 8.02 2 6.04 2 4 C1.34 3.67 0.68 3.34 0 3 C0 2.01 0 1.02 0 0 Z " fill="#5F31D0" transform="translate(317,242)"/>
<path d="M0 0 C2.31 0.66 4.62 1.32 7 2 C7.33 3.65 7.66 5.3 8 7 C6.68 7.33 5.36 7.66 4 8 C4.66 6.68 5.32 5.36 6 4 C4.35 3.67 2.7 3.34 1 3 C0.67 2.01 0.34 1.02 0 0 Z " fill="#8769CC" transform="translate(186,215)"/>
<path d="M0 0 C0 3.63 0 7.26 0 11 C-0.33 9.68 -0.66 8.36 -1 7 C-1.99 6.67 -2.98 6.34 -4 6 C-3.625 3.5625 -3.625 3.5625 -3 1 C-1 0 -1 0 0 0 Z " fill="#5C49CA" transform="translate(199,223)"/>
<path d="M0 0 C0.99 0 1.98 0 3 0 C3.66 3.3 4.32 6.6 5 10 C4.34 10 3.68 10 3 10 C0 3.375 0 3.375 0 0 Z " fill="#5818EC" transform="translate(346,251)"/>
<path d="M0 0 C1.65 1.32 3.3 2.64 5 4 C4.67 4.66 4.34 5.32 4 6 C1.525 5.01 1.525 5.01 -1 4 C-2.65 5.32 -4.3 6.64 -6 8 C-4.55746343 4.63408134 -2.66735273 2.48952921 0 0 Z " fill="#292869" transform="translate(133,247)"/>
<path d="M0 0 C0.99 0.495 0.99 0.495 2 1 C2 1.66 2 2.32 2 3 C3.65 3.33 5.3 3.66 7 4 C7 3.34 7 2.68 7 2 C7.66 2 8.32 2 9 2 C8.34 3.32 7.68 4.64 7 6 C4.625 6.1875 4.625 6.1875 2 6 C0 3 0 3 0 0 Z " fill="#5224C2" transform="translate(348,262)"/>
<path d="M0 0 C2.4375 0.8125 2.4375 0.8125 5 2 C5.33 2.99 5.66 3.98 6 5 C4.02 5 2.04 5 0 5 C-0.5625 3.0625 -0.5625 3.0625 -1 1 C-0.67 0.67 -0.34 0.34 0 0 Z " fill="#2B2A90" transform="translate(132,250)"/>
<path d="M0 0 C2.31 0 4.62 0 7 0 C7 0.99 7 1.98 7 3 C4.69 3 2.38 3 0 3 C0 2.01 0 1.02 0 0 Z " fill="#5411F0" transform="translate(367,263)"/>
<path d="M0 0 C1.5625 1.75 1.5625 1.75 3 4 C2.6875 6.25 2.6875 6.25 2 8 C0.68 8 -0.64 8 -2 8 C-1.47731534 5.23723823 -0.89130413 2.6739124 0 0 Z " fill="#5B18E8" transform="translate(325,253)"/>
<path d="M0 0 C1.2065625 0.0309375 1.2065625 0.0309375 2.4375 0.0625 C2.4375 0.7225 2.4375 1.3825 2.4375 2.0625 C1.1175 2.0625 -0.2025 2.0625 -1.5625 2.0625 C-1.5625 3.7125 -1.5625 5.3625 -1.5625 7.0625 C-0.9025 7.3925 -0.2425 7.7225 0.4375 8.0625 C-0.5525 8.0625 -1.5425 8.0625 -2.5625 8.0625 C-2.94313221 5.7364143 -3.27519945 3.40194736 -3.5625 1.0625 C-2.5625 0.0625 -2.5625 0.0625 0 0 Z " fill="#5824CD" transform="translate(217.5625,254.9375)"/>
<path d="M0 0 C0.33 1.32 0.66 2.64 1 4 C0.34 4.66 -0.32 5.32 -1 6 C-1.66 6 -2.32 6 -3 6 C-3.99 6.495 -3.99 6.495 -5 7 C-5.66 6.34 -6.32 5.68 -7 5 C-4.69 3.35 -2.38 1.7 0 0 Z " fill="#8E60E7" transform="translate(170,208)"/>
<path d="M0 0 C0.99 0.495 0.99 0.495 2 1 C2 1.66 2 2.32 2 3 C4.31 3.33 6.62 3.66 9 4 C8.67 4.66 8.34 5.32 8 6 C5.69 5.67 3.38 5.34 1 5 C0.67 3.35 0.34 1.7 0 0 Z " fill="#4D29C4" transform="translate(231,262)"/>
<path d="M0 0 C0 3 0 3 -2.25 5.6875 C-5 8 -5 8 -9 8 C-7.48210813 4.96421627 -4.79982163 3.82845494 -2 2 C-1.34 1.34 -0.68 0.68 0 0 Z " fill="#2D3164" transform="translate(124,256)"/>
<path d="M0 0 C3.59391114 1.33488128 6.75490696 2.96022723 10 5 C7.26634878 6.36682561 5.89333621 5.84683011 3 5 C1.1875 3.5625 1.1875 3.5625 0 2 C0 1.34 0 0.68 0 0 Z " fill="#8465C9" transform="translate(152,227)"/>
<path d="M0 0 C2.62901288 1.52206009 4.84365964 2.84365964 7 5 C4.36 5.33 1.72 5.66 -1 6 C-0.67 4.02 -0.34 2.04 0 0 Z " fill="#5715EF" transform="translate(365,254)"/>
<path d="M0 0 C0.66 0.33 1.32 0.66 2 1 C2 1.99 2 2.98 2 4 C2.99 4.33 3.98 4.66 5 5 C5 5.33 5 5.66 5 6 C3.35 6 1.7 6 0 6 C0 5.34 0 4.68 0 4 C-0.99 3.67 -1.98 3.34 -3 3 C-2.01 3 -1.02 3 0 3 C0 2.01 0 1.02 0 0 Z " fill="#7F4FE9" transform="translate(214,262)"/>
<path d="M0 0 C2.475 0.99 2.475 0.99 5 2 C4.01 2.99 3.02 3.98 2 5 C1.01 4.67 0.02 4.34 -1 4 C-0.67 2.68 -0.34 1.36 0 0 Z " fill="#9066DC" transform="translate(162,232)"/>
<path d="M0 0 C2.97 0.99 5.94 1.98 9 3 C9 3.66 9 4.32 9 5 C4.89198233 3.81323934 3.10551666 3.10551666 0 0 Z " fill="#141A47" transform="translate(108,276)"/>
<path d="M0 0 C-1.36983503 3.16115776 -1.9890638 3.9927092 -5 6 C-5 4.35 -5 2.7 -5 1 C-2 0 -2 0 0 0 Z " fill="#312D86" transform="translate(193,275)"/>
<path d="M0 0 C1.32 0 2.64 0 4 0 C4 0.99 4 1.98 4 3 C3.34 3 2.68 3 2 3 C1.67 4.32 1.34 5.64 1 7 C0.67 4.69 0.34 2.38 0 0 Z " fill="#4C0DE5" transform="translate(233,251)"/>
<path d="" fill="#FFFFFF" transform="translate(0,0)"/>
</svg>
